<?xml version="1.0" encoding="UTF-8" standalone="no"?>
<svg
   width="32"
   height="24"
   viewBox="0 0 32 24"
   fill="none"
   version="1.1"
   id="svg50"
   sodipodi:docname="kwb.svg"
   inkscape:version="1.4 (86a8ad7, 2024-10-11)"
   xmlns:inkscape="http://www.inkscape.org/namespaces/inkscape"
   xmlns:sodipodi="http://sodipodi.sourceforge.net/DTD/sodipodi-0.dtd"
   xmlns="http://www.w3.org/2000/svg"
   xmlns:svg="http://www.w3.org/2000/svg">
  <sodipodi:namedview
     id="namedview50"
     pagecolor="#ffffff"
     bordercolor="#000000"
     borderopacity="0.25"
     inkscape:showpageshadow="2"
     inkscape:pageopacity="0.0"
     inkscape:pagecheckerboard="0"
     inkscape:deskcolor="#d1d1d1"
     showgrid="true"
     inkscape:zoom="8.6354167"
     inkscape:cx="-29.761158"
     inkscape:cy="13.954162"
     inkscape:window-width="1920"
     inkscape:window-height="1009"
     inkscape:window-x="-8"
     inkscape:window-y="-8"
     inkscape:window-maximized="1"
     inkscape:current-layer="g14" />
  <g
     clip-path="url(#p.0)"
     id="g14"
     transform="matrix(0.30094787,0,0,0.30094787,4.0146725,-0.21653085)">
    <path
       fill="#000000"
       fill-opacity="0"
       d="M -0.0487539,0.71949659 H 79.699276 V 80.467527 H -0.0487539 Z"
       fill-rule="evenodd"
       id="path2-6" />
    <path
       fill="#000000"
       fill-opacity="0"
       d="m 22.502428,42.184062 v 0 c 0,-10.436876 8.46076,-18.897636 18.897636,-18.897636 v 0 c 5.011967,0 9.818653,1.990995 13.362648,5.53499 3.543995,3.543995 5.534992,8.350683 5.534992,13.362646 v 0 c 0,10.436878 -8.460762,18.89764 -18.89764,18.89764 v 0 c -10.436876,0 -18.897636,-8.460762 -18.897636,-18.89764 z"
       fill-rule="evenodd"
       id="path3-1" />
    <path
       stroke="#f4d35e"
       stroke-width="8"
       stroke-linejoin="round"
       stroke-linecap="butt"
       d="m 22.502428,42.184062 v 0 c 0,-10.436876 8.46076,-18.897636 18.897636,-18.897636 v 0 c 5.011967,0 9.818653,1.990995 13.362648,5.53499 3.543995,3.543995 5.534992,8.350683 5.534992,13.362646 v 0 c 0,10.436878 -8.460762,18.89764 -18.89764,18.89764 v 0 c -10.436876,0 -18.897636,-8.460762 -18.897636,-18.89764 z"
       fill-rule="evenodd"
       id="path4-8" />
    <path
       fill="#f4d35e"
       d="m 77.809516,5.8533546 v 0 c 1.478554,1.4785576 1.472687,3.8698773 -0.01311,5.3411624 l -10.745442,10.64051 v 0 c -0.713501,0.706537 -1.67984,1.102077 -2.686432,1.099607 -1.006588,-0.0025 -1.970974,-0.402746 -2.681,-1.112775 v 0 0 c -1.478558,-1.478558 -1.472691,-3.869877 0.0131,-5.341162 L 72.442076,5.8401856 c 1.485802,-1.4712849 3.888878,-1.4653893 5.36744,0.013169 z"
       fill-rule="evenodd"
       id="path5-9" />
    <path
       fill="#f4d35e"
       d="m 21.100853,62.546267 v 0 c 1.478558,1.478558 1.473856,3.871052 -0.0105,5.343792 L 10.371194,78.525313 v 0 c -0.7128133,0.70723 -1.6784886,1.103439 -2.6845893,1.101463 -1.0061007,-0.002 -1.9702115,-0.401977 -2.6802402,-1.112007 v 0 0 C 3.5278069,77.036215 3.5325073,74.643721 5.016863,73.170981 l 10.71916,-10.635254 c 1.484356,-1.472736 3.886272,-1.468017 5.36483,0.01054 z"
       fill-rule="evenodd"
       id="path6-2" />
    <path
       fill="#f4d35e"
       d="m 5.0693561,5.7746146 v 0 C 6.5479137,4.296057 8.9392334,4.3019238 10.410518,5.7877186 L 21.051029,16.533165 v 0 c 0.706535,0.713504 1.102076,1.679841 1.099606,2.686431 -0.0025,1.00659 -0.402747,1.970974 -1.112774,2.681004 v 0 0 c -1.478558,1.478557 -3.869879,1.47269 -5.341163,-0.0131 L 5.0561871,11.14205 C 3.5849022,9.6562547 3.5907978,7.2531723 5.0693561,5.7746146 Z"
       fill-rule="evenodd"
       id="path7-7" />
    <path
       fill="#f4d35e"
       d="m 61.76227,62.467527 v 0 c 1.478558,-1.478558 3.869877,-1.472691 5.34116,0.0131 l 10.640511,10.745449 v 0 c 0.706535,0.713501 1.102081,1.679841 1.099609,2.686432 -0.0025,1.006585 -0.402748,1.970971 -1.112777,2.681 v 0 0 c -1.478554,1.478554 -3.869873,1.472695 -5.341164,-0.01311 L 61.749102,67.834959 c -1.471287,-1.485794 -1.465389,-3.888874 0.01317,-5.367432 z"
       fill-rule="evenodd"
       id="path8-9" />
    <path
       fill="#000000"
       fill-opacity="0"
       d="m 19.337072,39.002963 v 0 c 0,-10.436878 8.460762,-18.89764 18.89764,-18.89764 v 0 c 5.011963,0 9.818653,1.990995 13.362644,5.53499 3.543995,3.543995 5.534992,8.350683 5.534992,13.36265 v 0 c 0,10.436874 -8.460762,18.897636 -18.897636,18.897636 v 0 c -10.436878,0 -18.89764,-8.460762 -18.89764,-18.897636 z"
       fill-rule="evenodd"
       id="path9-5" />
    <path
       stroke="#0d3b66"
       stroke-width="8"
       stroke-linejoin="round"
       stroke-linecap="butt"
       d="m 19.337072,39.002963 v 0 c 0,-10.436878 8.460762,-18.89764 18.89764,-18.89764 v 0 c 5.011963,0 9.818653,1.990995 13.362644,5.53499 3.543995,3.543995 5.534992,8.350683 5.534992,13.36265 v 0 c 0,10.436874 -8.460762,18.897636 -18.897636,18.897636 v 0 c -10.436878,0 -18.89764,-8.460762 -18.89764,-18.897636 z"
       fill-rule="evenodd"
       id="path10-4" />
    <path
       fill="#0d3b66"
       d="m 74.644166,2.6722525 v 0 c 1.478554,1.4785576 1.472687,3.8698773 -0.01311,5.341162 L 63.885614,18.653924 v 0 c -0.713505,0.706537 -1.679844,1.102077 -2.686432,1.099607 -1.006588,-0.0025 -1.970974,-0.402746 -2.681004,-1.112775 v 0 0 c -1.478558,-1.478558 -1.47269,-3.869877 0.0131,-5.341162 L 69.276727,2.6590835 c 1.485794,-1.4712849 3.888877,-1.4653893 5.367439,0.013169 z"
       fill-rule="evenodd"
       id="path11-3" />
    <path
       fill="#0d3b66"
       d="m 17.935497,59.365165 v 0 c 1.478559,1.478558 1.473858,3.871056 -0.0105,5.343792 L 7.2058391,75.344207 v 0 C 6.4930267,76.051444 5.5273508,76.447654 4.5212501,76.445678 3.5151494,76.443678 2.5510384,76.0437 1.8410099,75.333671 v 0 0 C 0.36245225,73.855109 0.36715255,71.462615 1.8515084,69.989883 L 12.570668,59.354625 c 1.484356,-1.472737 3.886271,-1.468018 5.364829,0.01054 z"
       fill-rule="evenodd"
       id="path12-1" />
    <path
       fill="#0d3b66"
       d="m 1.904002,2.5935123 v 0 C 3.3825596,1.1149547 5.7738793,1.1208216 7.245164,2.6066163 L 17.885673,13.352063 v 0 c 0.706537,0.713504 1.102077,1.679842 1.099607,2.686431 -0.0025,1.00659 -0.402746,1.970976 -1.112775,2.681003 v 0 0 c -1.478558,1.478558 -3.869877,1.472691 -5.341162,-0.0131 L 1.890833,7.9609474 C 0.4195481,6.4751529 0.4254437,4.0720704 1.904002,2.5935123 Z"
       fill-rule="evenodd"
       id="path13-2" />
    <path
       fill="#0d3b66"
       d="m 58.596914,59.286427 v 0 c 1.478558,-1.478558 3.869877,-1.472691 5.341164,0.0131 l 10.640511,10.745445 v 0 c 0.706535,0.713509 1.102073,1.679841 1.099609,2.686432 -0.0025,1.006592 -0.402748,1.970978 -1.112778,2.681008 v 0 0 c -1.478561,1.478554 -3.86988,1.472687 -5.341163,-0.01311 L 58.583746,64.653863 c -1.471283,-1.485795 -1.46539,-3.888878 0.01317,-5.367436 z"
       fill-rule="evenodd"
       id="path14-3" />
  </g>
  <defs
     id="defs50">
    <clipPath
       id="clip0_270_67387">
      <rect
         width="32"
         height="24"
         fill="white"
         id="rect50" />
    </clipPath>
    <clipPath
       id="p.0">
      <path
         d="M 0,0 H 79.74803 V 79.74803 H 0 Z"
         clip-rule="nonzero"
         id="path1-7" />
    </clipPath>
  </defs>
</svg>
