<?xml version="1.0" encoding="UTF-8" standalone="no"?>
<svg
   width="32"
   height="24"
   viewBox="0 0 32 24"
   fill="none"
   version="1.1"
   id="svg50"
   sodipodi:docname="kwb.svg"
   inkscape:version="1.4 (86a8ad7, 2024-10-11)"
   xmlns:inkscape="http://www.inkscape.org/namespaces/inkscape"
   xmlns:sodipodi="http://sodipodi.sourceforge.net/DTD/sodipodi-0.dtd"
   xmlns="http://www.w3.org/2000/svg"
   xmlns:svg="http://www.w3.org/2000/svg">
  <sodipodi:namedview
     id="namedview50"
     pagecolor="#ffffff"
     bordercolor="#000000"
     borderopacity="0.25"
     inkscape:showpageshadow="2"
     inkscape:pageopacity="0.0"
     inkscape:pagecheckerboard="0"
     inkscape:deskcolor="#d1d1d1"
     showgrid="true"
     inkscape:zoom="17.270833"
     inkscape:cx="3.8793729"
     inkscape:cy="12.072377"
     inkscape:window-width="1920"
     inkscape:window-height="1009"
     inkscape:window-x="-8"
     inkscape:window-y="-8"
     inkscape:window-maximized="1"
     inkscape:current-layer="g14" />
  <g
     clip-path="url(#p.0)"
     id="g14"
     transform="matrix(0.30094787,0,0,0.30094787,4.0146725,-0.21653085)">
    <path
       fill="#000000"
       fill-opacity="0"
       d="M 6.5969147,7.3651654 H 73.053607 V 73.821858 H 6.5969147 Z"
       fill-rule="evenodd"
       id="path2-6"
       style="stroke-width:0.833333" />
    <path
       fill="#000000"
       fill-opacity="0"
       d="m 25.389566,41.918971 v 0 c 0,-8.697397 7.050633,-15.74803 15.74803,-15.74803 v 0 c 4.176639,0 8.182211,1.659161 11.13554,4.612491 2.95333,2.95333 4.612494,6.958903 4.612494,11.135539 v 0 c 0,8.697398 -7.050635,15.748033 -15.748034,15.748033 v 0 c -8.697397,0 -15.74803,-7.050635 -15.74803,-15.748033 z"
       fill-rule="evenodd"
       id="path3-1"
       style="stroke-width:0.833333" />
    <path
       stroke="#f4d35e"
       stroke-width="6.66667"
       stroke-linejoin="round"
       stroke-linecap="butt"
       d="m 25.389566,41.918971 v 0 c 0,-8.697397 7.050633,-15.74803 15.74803,-15.74803 v 0 c 4.176639,0 8.182211,1.659161 11.13554,4.612491 2.95333,2.95333 4.612494,6.958903 4.612494,11.135539 v 0 c 0,8.697398 -7.050635,15.748033 -15.748034,15.748033 v 0 c -8.697397,0 -15.74803,-7.050635 -15.74803,-15.748033 z"
       fill-rule="evenodd"
       id="path4-8" />
    <path
       fill="#f4d35e"
       d="m 71.478807,11.643381 v 0 c 1.232129,1.232131 1.227239,3.224898 -0.01093,4.450969 l -8.954535,8.867092 v 0 c -0.594583,0.58878 -1.399867,0.918397 -2.238692,0.916339 -0.838825,-0.0021 -1.64248,-0.335622 -2.234168,-0.927314 v 0 0 C 56.80835,23.718337 56.81324,21.725571 58.051402,20.4995 l 8.954538,-8.867093 c 1.238169,-1.226071 3.240732,-1.221158 4.472867,0.01097 z"
       fill-rule="evenodd"
       id="path5-9"
       style="stroke-width:0.833333" />
    <path
       fill="#f4d35e"
       d="m 24.221587,58.887475 v 0 c 1.232131,1.232131 1.228213,3.225876 -0.0087,4.45316 l -8.932683,8.862711 v 0 c -0.594011,0.589359 -1.39874,0.919533 -2.237157,0.917885 -0.838418,-0.0017 -1.641843,-0.33498 -2.233534,-0.926671 v 0 0 c -1.232131,-1.232129 -1.2282135,-3.225874 0.0088,-4.453158 l 8.932633,-8.862711 c 1.236963,-1.22728 3.23856,-1.223347 4.470692,0.0088 z"
       fill-rule="evenodd"
       id="path6-2"
       style="stroke-width:0.833333" />
    <path
       fill="#f4d35e"
       d="m 10.862006,11.577764 v 0 c 1.232131,-1.232131 3.224898,-1.227242 4.450968,0.01092 l 8.867093,8.954538 v 0 c 0.588779,0.594588 0.918396,1.399868 0.916338,2.238693 -0.0021,0.838825 -0.335623,1.642479 -0.927312,2.23417 v 0 0 c -1.232131,1.232131 -3.224899,1.227243 -4.450969,-0.01092 l -8.867092,-8.954538 c -1.2260708,-1.238163 -1.2211575,-3.240732 0.01097,-4.472864 z"
       fill-rule="evenodd"
       id="path7-7"
       style="stroke-width:0.833333" />
    <path
       fill="#f4d35e"
       d="m 58.106101,58.821857 v 0 c 1.232133,-1.232131 3.224899,-1.227241 4.450968,0.01092 l 8.867092,8.954541 v 0 c 0.58878,0.594584 0.918401,1.399867 0.916341,2.238693 -0.0021,0.838821 -0.335623,1.642476 -0.927314,2.234167 v 0 0 c -1.232128,1.232128 -3.224894,1.227246 -4.45097,-0.01093 l -8.867089,-8.95453 c -1.226073,-1.238162 -1.221158,-3.240728 0.01097,-4.47286 z"
       fill-rule="evenodd"
       id="path8-9"
       style="stroke-width:0.833333" />
    <path
       fill="#000000"
       fill-opacity="0"
       d="m 22.751769,39.268055 v 0 c 0,-8.697398 7.050635,-15.748033 15.748035,-15.748033 v 0 c 4.176635,0 8.182211,1.659162 11.135536,4.61249 2.95333,2.95333 4.612494,6.958904 4.612494,11.135543 v 0 c 0,8.697395 -7.050635,15.74803 -15.74803,15.74803 v 0 c -8.6974,0 -15.748035,-7.050635 -15.748035,-15.74803 z"
       fill-rule="evenodd"
       id="path9-5"
       style="stroke-width:0.833333" />
    <path
       stroke="#0d3b66"
       stroke-width="6.66667"
       stroke-linejoin="round"
       stroke-linecap="butt"
       d="m 22.751769,39.268055 v 0 c 0,-8.697398 7.050635,-15.748033 15.748035,-15.748033 v 0 c 4.176635,0 8.182211,1.659162 11.135536,4.61249 2.95333,2.95333 4.612494,6.958904 4.612494,11.135543 v 0 c 0,8.697395 -7.050635,15.74803 -15.74803,15.74803 v 0 c -8.6974,0 -15.748035,-7.050635 -15.748035,-15.74803 z"
       fill-rule="evenodd"
       id="path10-4" />
    <path
       fill="#0d3b66"
       d="m 68.841016,8.9924621 v 0 c 1.232128,1.2321319 1.227239,3.2248979 -0.01093,4.4509689 l -8.954531,8.867092 v 0 c -0.594587,0.588779 -1.39987,0.918397 -2.238693,0.916339 -0.838822,-0.0021 -1.642477,-0.335622 -2.23417,-0.927313 v 0 0 C 54.17056,21.067418 54.17545,19.074652 55.413612,17.848581 L 64.36815,8.9814879 c 1.238161,-1.2260707 3.240731,-1.2211577 4.472866,0.010974 z"
       fill-rule="evenodd"
       id="path11-3"
       style="stroke-width:0.833333" />
    <path
       fill="#0d3b66"
       d="m 21.58379,56.236556 v 0 c 1.232133,1.232132 1.228215,3.22588 -0.0087,4.45316 l -8.932631,8.862709 v 0 c -0.594061,0.589364 -1.398791,0.919539 -2.237208,0.917891 -0.8384165,-0.0017 -1.6418427,-0.334981 -2.2335331,-0.926671 v 0 0 C 6.9395865,68.31151 6.9435034,66.317765 8.1804679,65.090487 L 17.1131,56.227772 c 1.236963,-1.22728 3.238559,-1.223347 4.470691,0.0088 z"
       fill-rule="evenodd"
       id="path12-1"
       style="stroke-width:0.833333" />
    <path
       fill="#0d3b66"
       d="m 8.2242113,8.9268452 v 0 C 9.4563428,7.6947139 11.449109,7.699603 12.675179,8.9377652 l 8.867091,8.9545398 v 0 c 0.588781,0.594587 0.918397,1.399868 0.916339,2.238693 -0.0021,0.838825 -0.335622,1.64248 -0.927312,2.234169 v 0 0 c -1.232132,1.232131 -3.224898,1.227242 -4.450969,-0.01092 L 8.2132371,13.399708 C 6.9871664,12.161546 6.9920794,10.158978 8.2242113,8.9268452 Z"
       fill-rule="evenodd"
       id="path13-2"
       style="stroke-width:0.833333" />
    <path
       fill="#0d3b66"
       d="m 55.468305,56.170941 v 0 c 1.232131,-1.232131 3.224898,-1.227242 4.45097,0.01092 l 8.867092,8.954538 v 0 c 0.58878,0.594591 0.918395,1.399867 0.916342,2.238693 -0.0021,0.838827 -0.335623,1.642482 -0.927315,2.234173 v 0 0 c -1.232134,1.232129 -3.2249,1.22724 -4.450969,-0.01093 L 55.457331,60.64381 c -1.226069,-1.238163 -1.221157,-3.240733 0.01097,-4.472863 z"
       fill-rule="evenodd"
       id="path14-3"
       style="stroke-width:0.833333" />
  </g>
  <defs
     id="defs50">
    <clipPath
       id="clip0_270_67387">
      <rect
         width="32"
         height="24"
         fill="white"
         id="rect50" />
    </clipPath>
    <clipPath
       id="p.0">
      <path
         d="M 0,0 H 79.74803 V 79.74803 H 0 Z"
         clip-rule="nonzero"
         id="path1-7" />
    </clipPath>
  </defs>
</svg>
