<?xml version="1.0" encoding="UTF-8" standalone="no"?>
<svg
   width="32"
   height="24"
   viewBox="0 0 32 24"
   fill="none"
   version="1.1"
   id="svg50"
   sodipodi:docname="kwb.svg"
   inkscape:version="1.4 (86a8ad7, 2024-10-11)"
   xmlns:inkscape="http://www.inkscape.org/namespaces/inkscape"
   xmlns:sodipodi="http://sodipodi.sourceforge.net/DTD/sodipodi-0.dtd"
   xmlns="http://www.w3.org/2000/svg"
   xmlns:svg="http://www.w3.org/2000/svg">
  <sodipodi:namedview
     id="namedview50"
     pagecolor="#ffffff"
     bordercolor="#000000"
     borderopacity="0.25"
     inkscape:showpageshadow="2"
     inkscape:pageopacity="0.0"
     inkscape:pagecheckerboard="0"
     inkscape:deskcolor="#d1d1d1"
     showgrid="true"
     inkscape:zoom="12.212323"
     inkscape:cx="-11.545715"
     inkscape:cy="14.780152"
     inkscape:window-width="1920"
     inkscape:window-height="1009"
     inkscape:window-x="-8"
     inkscape:window-y="-8"
     inkscape:window-maximized="1"
     inkscape:current-layer="g14" />
  <g
     clip-path="url(#p.0)"
     id="g14"
     transform="matrix(0.30094787,0,0,0.30094787,4.0146725,-0.21653085)">
    <path
       fill="#000000"
       fill-opacity="0"
       d="M 6.5969153,7.3651656 H 73.053607 V 73.821858 H 6.5969153 Z"
       fill-rule="evenodd"
       id="path2-6"
       style="stroke-width:1" />
    <path
       fill="#000000"
       fill-opacity="0"
       d="m 25.389567,41.918971 v 0 c 0,-8.697397 7.050633,-15.74803 15.74803,-15.74803 v 0 c 4.176639,0 8.182211,1.659162 11.13554,4.612492 2.953329,2.953329 4.612493,6.958902 4.612493,11.135538 v 0 c 0,8.697398 -7.050635,15.748033 -15.748033,15.748033 v 0 c -8.697397,0 -15.74803,-7.050635 -15.74803,-15.748033 z"
       fill-rule="evenodd"
       id="path3-1"
       style="stroke-width:1" />
    <path
       stroke="#f4d35e"
       stroke-width="8"
       stroke-linejoin="round"
       stroke-linecap="butt"
       d="m 25.389567,41.918971 v 0 c 0,-8.697397 7.050633,-15.74803 15.74803,-15.74803 v 0 c 4.176639,0 8.182211,1.659162 11.13554,4.612492 2.953329,2.953329 4.612493,6.958902 4.612493,11.135538 v 0 c 0,8.697398 -7.050635,15.748033 -15.748033,15.748033 v 0 c -8.697397,0 -15.74803,-7.050635 -15.74803,-15.748033 z"
       fill-rule="evenodd"
       id="path4-8" />
    <path
       fill="#f4d35e"
       d="m 71.478807,11.643381 v 0 c 1.232129,1.232131 1.227239,3.224898 -0.01093,4.450969 l -8.954535,8.867092 v 0 c -0.594584,0.588781 -1.399867,0.918397 -2.238693,0.916339 -0.838824,-0.0021 -1.642479,-0.335622 -2.234167,-0.927313 v 0 0 C 56.80835,23.718337 56.81324,21.725571 58.051402,20.4995 l 8.954538,-8.867093 c 1.238169,-1.226071 3.240732,-1.221158 4.472867,0.01097 z"
       fill-rule="evenodd"
       id="path5-9"
       style="stroke-width:1" />
    <path
       fill="#f4d35e"
       d="m 24.221588,58.887475 v 0 c 1.232131,1.232132 1.228213,3.225877 -0.0087,4.45316 l -8.932683,8.862712 v 0 c -0.594011,0.589358 -1.39874,0.919532 -2.237157,0.917885 -0.838418,-0.0017 -1.641843,-0.33498 -2.233534,-0.926672 v 0 0 c -1.2321313,-1.232128 -1.2282143,-3.225873 0.0088,-4.453157 l 8.932633,-8.862711 c 1.236963,-1.22728 3.23856,-1.223348 4.470692,0.0088 z"
       fill-rule="evenodd"
       id="path6-2"
       style="stroke-width:1" />
    <path
       fill="#f4d35e"
       d="m 10.862007,11.577764 v 0 c 1.232131,-1.232131 3.224898,-1.227242 4.450968,0.01092 l 8.867093,8.954539 v 0 c 0.588779,0.594587 0.918396,1.399868 0.916338,2.238693 -0.0021,0.838825 -0.335623,1.642478 -0.927312,2.23417 v 0 0 c -1.232131,1.232131 -3.224899,1.227242 -4.450969,-0.01092 l -8.867092,-8.954538 c -1.2260709,-1.238163 -1.2211579,-3.240732 0.01097,-4.472864 z"
       fill-rule="evenodd"
       id="path7-7"
       style="stroke-width:1" />
    <path
       fill="#f4d35e"
       d="m 58.106102,58.821858 v 0 c 1.232132,-1.232131 3.224898,-1.227242 4.450967,0.01092 l 8.867092,8.954541 v 0 c 0.58878,0.594584 0.918401,1.399867 0.916341,2.238693 -0.0021,0.838821 -0.335623,1.642476 -0.927314,2.234167 v 0 0 c -1.232128,1.232128 -3.224894,1.227246 -4.45097,-0.01093 l -8.867089,-8.954531 c -1.226073,-1.238161 -1.221158,-3.240728 0.01097,-4.47286 z"
       fill-rule="evenodd"
       id="path8-9"
       style="stroke-width:1" />
    <path
       fill="#000000"
       fill-opacity="0"
       d="m 22.75177,39.268055 v 0 c 0,-8.697398 7.050635,-15.748033 15.748034,-15.748033 v 0 c 4.176635,0 8.182211,1.659162 11.135536,4.612491 2.95333,2.95333 4.612494,6.958903 4.612494,11.135542 v 0 c 0,8.697395 -7.050635,15.74803 -15.74803,15.74803 v 0 c -8.697399,0 -15.748034,-7.050635 -15.748034,-15.74803 z"
       fill-rule="evenodd"
       id="path9-5"
       style="stroke-width:1" />
    <path
       stroke="#0d3b66"
       stroke-width="8"
       stroke-linejoin="round"
       stroke-linecap="butt"
       d="m 22.75177,39.268055 v 0 c 0,-8.697398 7.050635,-15.748033 15.748034,-15.748033 v 0 c 4.176635,0 8.182211,1.659162 11.135536,4.612491 2.95333,2.95333 4.612494,6.958903 4.612494,11.135542 v 0 c 0,8.697395 -7.050635,15.74803 -15.74803,15.74803 v 0 c -8.697399,0 -15.748034,-7.050635 -15.748034,-15.74803 z"
       fill-rule="evenodd"
       id="path10-4" />
    <path
       fill="#0d3b66"
       d="m 68.841016,8.9924623 v 0 c 1.232128,1.2321317 1.227239,3.2248977 -0.01093,4.4509687 l -8.954531,8.867092 v 0 c -0.594587,0.58878 -1.39987,0.918397 -2.238693,0.916339 -0.838823,-0.0021 -1.642478,-0.335622 -2.23417,-0.927313 v 0 0 C 54.17056,21.067418 54.17545,19.074652 55.413612,17.848581 L 64.36815,8.9814881 c 1.238161,-1.2260707 3.240731,-1.2211577 4.472866,0.010974 z"
       fill-rule="evenodd"
       id="path11-3"
       style="stroke-width:1" />
    <path
       fill="#0d3b66"
       d="m 21.583791,56.236557 v 0 c 1.232132,1.232131 1.228215,3.22588 -0.0087,4.45316 l -8.932631,8.862708 v 0 c -0.594061,0.589364 -1.398791,0.919539 -2.237208,0.917892 -0.8384173,-0.0017 -1.6418431,-0.334981 -2.2335335,-0.926672 v 0 0 C 6.9395871,68.31151 6.943504,66.317765 8.1804672,65.090488 L 17.1131,56.227773 c 1.236963,-1.22728 3.238559,-1.223348 4.470691,0.0088 z"
       fill-rule="evenodd"
       id="path12-1"
       style="stroke-width:1" />
    <path
       fill="#0d3b66"
       d="m 8.2242119,8.9268454 v 0 C 9.4563432,7.6947141 11.44911,7.6996032 12.67518,8.9377654 l 8.867091,8.9545396 v 0 c 0.588781,0.594587 0.918397,1.399868 0.916339,2.238693 -0.0021,0.838825 -0.335622,1.64248 -0.927312,2.234169 v 0 0 c -1.232132,1.232131 -3.224898,1.227242 -4.450969,-0.01092 L 8.2132377,13.399708 C 6.987167,12.161546 6.99208,10.158978 8.2242119,8.9268454 Z"
       fill-rule="evenodd"
       id="path13-2"
       style="stroke-width:1" />
    <path
       fill="#0d3b66"
       d="m 55.468305,56.170942 v 0 c 1.232132,-1.232132 3.224898,-1.227243 4.45097,0.01092 l 8.867093,8.954538 v 0 c 0.588779,0.594591 0.918394,1.399867 0.916341,2.238693 -0.0021,0.838827 -0.335623,1.642482 -0.927315,2.234173 v 0 0 c -1.232134,1.232129 -3.2249,1.22724 -4.450969,-0.01093 l -8.867093,-8.954532 c -1.226069,-1.238163 -1.221158,-3.240732 0.01097,-4.472863 z"
       fill-rule="evenodd"
       id="path14-3"
       style="stroke-width:1" />
  </g>
  <defs
     id="defs50">
    <clipPath
       id="clip0_270_67387">
      <rect
         width="32"
         height="24"
         fill="white"
         id="rect50" />
    </clipPath>
    <clipPath
       id="p.0">
      <path
         d="M 0,0 H 79.74803 V 79.74803 H 0 Z"
         clip-rule="nonzero"
         id="path1-7" />
    </clipPath>
  </defs>
</svg>
