<?xml version="1.0" encoding="UTF-8" standalone="no"?>
<svg
   width="80"
   height="80"
   viewBox="0 0 80 80"
   fill="none"
   version="1.1"
   id="svg9"
   sodipodi:docname="mascot_bad.svg"
   inkscape:version="1.4 (86a8ad7, 2024-10-11)"
   xmlns:inkscape="http://www.inkscape.org/namespaces/inkscape"
   xmlns:sodipodi="http://sodipodi.sourceforge.net/DTD/sodipodi-0.dtd"
   xmlns="http://www.w3.org/2000/svg"
   xmlns:svg="http://www.w3.org/2000/svg">
  <sodipodi:namedview
     id="namedview9"
     pagecolor="#ffffff"
     bordercolor="#000000"
     borderopacity="0.25"
     inkscape:showpageshadow="2"
     inkscape:pageopacity="0.0"
     inkscape:pagecheckerboard="0"
     inkscape:deskcolor="#d1d1d1"
     showgrid="true"
     inkscape:zoom="2.590625"
     inkscape:cx="-125.06634"
     inkscape:cy="-1.3510253"
     inkscape:window-width="1920"
     inkscape:window-height="1009"
     inkscape:window-x="-8"
     inkscape:window-y="-8"
     inkscape:window-maximized="1"
     inkscape:current-layer="svg9">
    <inkscape:grid
       id="grid9"
       units="px"
       originx="0"
       originy="0"
       spacingx="1"
       spacingy="1"
       empcolor="#0099e5"
       empopacity="0.30196078"
       color="#0099e5"
       opacity="0.14901961"
       empspacing="5"
       enabled="true"
       visible="true" />
  </sodipodi:namedview>
  <defs
     id="defs9">
    <linearGradient
       id="paint0_linear_3_13784"
       x1="40"
       y1="-1.09798e-07"
       x2="40"
       y2="80"
       gradientUnits="userSpaceOnUse">
      <stop
         stop-color="#E26081"
         id="stop6" />
      <stop
         offset="1"
         stop-color="#D44947"
         id="stop7" />
    </linearGradient>
    <linearGradient
       id="paint1_linear_3_13784"
       x1="39.75"
       y1="-0.25"
       x2="39.75"
       y2="43.25"
       gradientUnits="userSpaceOnUse">
      <stop
         stop-color="#F37F98"
         id="stop8" />
      <stop
         offset="1"
         stop-color="#D74854"
         id="stop9" />
    </linearGradient>
    <inkscape:path-effect
       effect="spiro"
       id="path-effect12"
       is_visible="true"
       lpeversion="1" />
  </defs>
  <path
     fill="#000000"
     fill-opacity="0"
     d="M 0,0 H 80 V 80 H 0 Z"
     fill-rule="evenodd"
     id="path2-6"
     style="stroke-width:1.00316" />
  <path
     fill="#000000"
     fill-opacity="0"
     d="m 22.622436,41.595576 v 0 c 0,-10.469852 8.487492,-18.957344 18.957344,-18.957344 v 0 c 5.027804,0 9.849676,1.997284 13.404868,5.552476 3.555192,3.555196 5.55248,8.377068 5.55248,13.404868 v 0 c 0,10.469852 -8.487492,18.957348 -18.957348,18.957348 v 0 c -10.469852,0 -18.957344,-8.487496 -18.957344,-18.957348 z"
     fill-rule="evenodd"
     id="path3-1"
     style="stroke-width:1.00316" />
  <path
     fill="#000000"
     fill-opacity="0"
     d="m 19.447076,38.404428 v 0 c 0,-10.469856 8.487496,-18.957348 18.957352,-18.957348 v 0 c 5.027796,0 9.849676,1.997284 13.404864,5.552476 3.555192,3.555192 5.55248,8.377068 5.55248,13.404872 v 0 c 0,10.469848 -8.487492,18.957344 -18.957344,18.957344 v 0 c -10.469856,0 -18.957352,-8.487496 -18.957352,-18.957344 z"
     fill-rule="evenodd"
     id="path9-5"
     style="stroke-width:1.00316" />
  <path
     stroke="#0d3b66"
     stroke-width="8.02528"
     stroke-linejoin="round"
     stroke-linecap="butt"
     d="m 21.035109,39.999967 v 0 c 0,10.469857 8.487496,18.957349 18.957353,18.957349 v 0 c 5.027796,0 9.849676,-1.997284 13.404863,-5.552476 3.555193,-3.555193 5.55248,-8.377068 5.55248,-13.404873 v 0 c 0,-10.469847 -8.487491,-18.957343 -18.957343,-18.957343 v 0 c -10.469857,0 -18.957353,8.487496 -18.957353,18.957343 z"
     fill-rule="evenodd"
     id="path10-4" />
  <path
     fill="#0d3b66"
     d="m 76.516949,3.554468 v 0 c 1.483232,1.483232 1.477348,3.882104 -0.01316,5.35804 L 65.724407,19.586636 v 0 c -0.71576,0.708768 -1.685151,1.10556 -2.69492,1.103084 -1.009767,-0.0025 -1.9772,-0.40402 -2.689475,-1.116292 v 0 0 c -1.483228,-1.483228 -1.477345,-3.882104 0.0132,-5.35804 L 71.132607,3.54126 c 1.490489,-1.475936 3.901165,-1.47002 5.384395,0.0132 z"
     fill-rule="evenodd"
     id="path11-3"
     style="stroke-width:1.00316" />
  <path
     fill="#0d3b66"
     d="m 19.629109,60.426508 v 0 c 1.483229,1.483228 1.478513,3.883285 -0.01042,5.360676 L 8.865664,76.45604 v 0 c -0.715123,0.70947 -1.6838518,1.10693 -2.6931318,1.10495 -1.00928,-0.002 -1.9764358,-0.40325 -2.6887084,-1.11552 v 0 0 C 2.0005964,74.962233 2.0053122,72.56218 3.4942448,71.084793 L 14.247274,60.415933 c 1.489044,-1.477389 3.898548,-1.472653 5.38178,0.01042 z"
     fill-rule="evenodd"
     id="path12-1"
     style="stroke-width:1.00316" />
  <path
     fill="#0d3b66"
     d="m 3.5469617,3.47548 v 0 C 5.0301891,1.992252 7.4290648,1.998136 8.904998,3.48868 l 10.674127,10.7794 v 0 c 0.708773,0.71576 1.10556,1.685148 1.103084,2.69492 -0.0025,1.009773 -0.40402,1.977204 -1.116291,2.689473 v 0 0 c -1.483233,1.483231 -3.882104,1.477343 -5.35804,-0.0132 L 3.5337491,8.859876 C 2.0578175,7.369384 2.0637291,4.958712 3.5469491,3.47548 Z"
     fill-rule="evenodd"
     id="path13-2"
     style="stroke-width:1.00316" />
  <path
     fill="#0d3b66"
     d="m 60.418998,60.34752 v 0 c 1.483227,-1.483227 3.882104,-1.477344 5.35804,0.0132 l 10.674133,10.7794 v 0 c 0.708768,0.71576 1.105557,1.685149 1.103084,2.694916 -0.0021,1.009777 -0.404021,1.977214 -1.116295,2.689474 v 0 0 c -1.483235,1.48323 -3.882106,1.47735 -5.358038,-0.0132 L 60.405789,65.731933 c -1.475931,-1.490489 -1.47002,-3.901165 0.0132,-5.384393 z"
     fill-rule="evenodd"
     id="path14-3"
     style="stroke-width:1.00316" />
  <path
     style="fill:none;stroke:#f4d35e;stroke-width:8.025;stroke-linecap:round;stroke-linejoin:round;stroke-dasharray:none;stroke-opacity:1"
     d="m 30,40 c 0,2.617994 1.077731,5.219867 2.928932,7.071068 C 34.780133,48.922269 37.382006,50 40,50 42.617994,50 45.219867,48.922269 47.071068,47.071068 48.922269,45.219867 50,42.617994 50,40"
     id="path12"
     inkscape:path-effect="#path-effect12"
     inkscape:original-d="m 30,40 c 3.767591,3.031765 6.666666,6.666666 10,10 3.333333,3.333333 6.666667,-6.666667 10,-10"
     sodipodi:nodetypes="csc"
     transform="matrix(1,0,0,-1,0,79.99994)" />
</svg>
