<?xml version="1.0" encoding="UTF-8" standalone="no"?>
<!-- Created with Inkscape (http://www.inkscape.org/) -->

<svg
   width="180.84488"
   height="179.83481"
   viewBox="0 0 47.84854 47.581293"
   version="1.1"
   id="svg1"
   inkscape:version="1.4 (86a8ad7, 2024-10-11)"
   sodipodi:docname="pun.svg"
   xmlns:inkscape="http://www.inkscape.org/namespaces/inkscape"
   xmlns:sodipodi="http://sodipodi.sourceforge.net/DTD/sodipodi-0.dtd"
   xmlns="http://www.w3.org/2000/svg"
   xmlns:svg="http://www.w3.org/2000/svg">
  <sodipodi:namedview
     id="namedview1"
     pagecolor="#ffffff"
     bordercolor="#000000"
     borderopacity="0.25"
     inkscape:showpageshadow="2"
     inkscape:pageopacity="0.0"
     inkscape:pagecheckerboard="0"
     inkscape:deskcolor="#d1d1d1"
     inkscape:document-units="mm"
     showgrid="true"
     inkscape:zoom="0.80642025"
     inkscape:cx="-426.57659"
     inkscape:cy="14.260555"
     inkscape:window-width="1920"
     inkscape:window-height="1009"
     inkscape:window-x="-8"
     inkscape:window-y="-8"
     inkscape:window-maximized="1"
     inkscape:current-layer="layer1">
    <inkscape:grid
       id="grid1"
       units="px"
       originx="-2.6775069"
       originy="-2.8301208"
       spacingx="1.0583333"
       spacingy="1.0583333"
       empcolor="#0099e5"
       empopacity="0.30196078"
       color="#0099e5"
       opacity="0.14901961"
       empspacing="5"
       enabled="true"
       visible="true" />
  </sodipodi:namedview>
  <defs
     id="defs1">
    <inkscape:path-effect
       effect="spiro"
       id="path-effect3"
       is_visible="true"
       lpeversion="1" />
    <inkscape:path-effect
       effect="spiro"
       id="path-effect2"
       is_visible="true"
       lpeversion="1" />
    <inkscape:path-effect
       effect="spiro"
       id="path-effect1"
       is_visible="true"
       lpeversion="1" />
    <inkscape:path-effect
       effect="spiro"
       id="path-effect21-6"
       is_visible="true"
       lpeversion="1" />
    <inkscape:path-effect
       effect="spiro"
       id="path-effect22-0"
       is_visible="true"
       lpeversion="1" />
    <inkscape:path-effect
       effect="spiro"
       id="path-effect32"
       is_visible="true"
       lpeversion="1" />
    <inkscape:path-effect
       effect="spiro"
       id="path-effect33"
       is_visible="true"
       lpeversion="1" />
    <inkscape:path-effect
       effect="spiro"
       id="path-effect34"
       is_visible="true"
       lpeversion="1" />
  </defs>
  <g
     inkscape:label="Layer 1"
     inkscape:groupmode="layer"
     id="layer1"
     transform="translate(-2.677507,-2.8301209)">
    <path
       style="fill:none;stroke:#000000;stroke-width:5.29167;stroke-linecap:round;stroke-linejoin:round;stroke-dasharray:none"
       d="m 148.16666,58.208331 c 3.56174,-0.518698 7.09607,-1.225564 10.58333,-2.116667 3.56919,-0.912038 7.08647,-2.016206 10.58334,-3.174999 4.64813,-1.540298 9.33452,-3.214231 13.31494,-6.066227 1.99022,-1.425998 3.78726,-3.143129 5.17658,-5.159116 1.38932,-2.015988 2.36293,-4.33796 2.67514,-6.766323 0.34206,-2.660577 -0.12144,-5.405132 -1.22101,-7.851892 -1.09956,-2.44676 -2.82309,-4.596394 -4.90534,-6.287526 -4.16449,-3.382266 -9.65044,-4.860812 -15.01539,-4.866856 -5.37393,-0.0061 -10.87264,1.46531 -15.04819,4.848194 -2.08778,1.691442 -3.81626,3.843283 -4.919,6.293536 -1.10274,2.450253 -1.56759,5.199585 -1.2244,7.864544 0.31271,2.428236 1.28654,4.749995 2.67593,6.765858 1.3894,2.015862 3.18637,3.732951 5.17648,5.15899 3.98021,2.852077 8.66629,4.526415 13.31426,6.066818 3.49683,1.158901 7.01413,2.262997 10.58333,3.174999 3.48727,0.891068 7.0216,1.597934 10.58333,2.116667"
       id="path32"
       inkscape:path-effect="#path-effect32"
       inkscape:original-d="m 148.16666,58.208331 c 3.13002,-0.707125 7.05555,-2.116667 10.58333,-2.116667 3.52778,0 7.05556,-1.411109 10.58334,-3.174999 3.52778,-1.763887 14.11111,-12.699999 21.16666,-17.991666 7.05556,-5.291667 -14.08619,-11.950719 -21.14174,-19.006274 -7.05556,-7.0555549 -14.13604,13.714607 -21.19159,19.006274 -7.05556,5.291667 14.11111,10.936112 21.16667,17.991666 7.05555,7.055556 7.05556,1.41111 10.58333,3.174999 3.52778,1.76389 7.05555,2.116667 10.58333,2.116667"
       sodipodi:nodetypes="csssssssc"
       transform="translate(-142.73135,-10.442752)" />
    <path
       style="display:inline;fill:none;stroke:#000000;stroke-width:5.29167;stroke-linecap:round;stroke-linejoin:round;stroke-dasharray:none"
       d="M 21.166666,9.5714157 C 19.328147,10.88571 17.560815,12.299576 15.875,13.804749 15.082474,14.512353 14.301284,15.247773 13.699727,16.123518 13.09817,16.999263 12.682413,18.03411 12.7,19.096415 c 0.0118,0.712789 0.219991,1.418491 0.577046,2.035515 0.357055,0.617025 0.860683,1.145643 1.446666,1.551638 1.171964,0.811991 2.648913,1.117353 4.071047,1.015536 1.422133,-0.101817 2.795313,-0.588708 4.061345,-1.244445 1.266033,-0.655737 2.436362,-1.479188 3.602229,-2.29991 1.165867,-0.820722 2.336196,-1.644173 3.602229,-2.29991 1.266032,-0.655737 2.639212,-1.142628 4.061345,-1.244445 1.422133,-0.101817 2.899083,0.203544 4.071047,1.015535 0.585982,0.405996 1.089611,0.934614 1.446666,1.551638 0.357055,0.617024 0.565246,1.322726 0.577046,2.035515 0.01759,1.062305 -0.39817,2.097152 -0.999727,2.972897 -0.601557,0.875746 -1.382747,1.611166 -2.175273,2.318769 -1.685815,1.505174 -3.453148,2.919039 -5.291667,4.233333"
       id="path1"
       inkscape:path-effect="#path-effect1"
       inkscape:original-d="M 21.166666,9.5714157 C 17.390582,13.258774 34193053,-47695473 15.875,13.804749 c -2.906838,4.054717 -2.846818,3.558576 -3.175,5.291666 -1.210552,6.392775 6.420024,13.893967 13.758333,1.058334 2.768458,-4.842384 10.230556,2.822222 13.758333,1.058333 3.527776,-1.763889 -3.022018,1.382599 -3.175,5.291666 -0.152985,3.909066 -3.52778,2.469446 -5.291667,4.233333"
       sodipodi:nodetypes="csssssc"
       transform="translate(-3.9839356e-7,3.1285834)" />
  </g>
</svg>
