<?xml version="1.0" encoding="UTF-8" standalone="no"?>
<!-- Created with Inkscape (http://www.inkscape.org/) -->

<svg
   width="172.84196"
   height="171.83481"
   viewBox="0 0 45.731102 45.464626"
   version="1.1"
   id="svg1"
   inkscape:version="1.4 (86a8ad7, 2024-10-11)"
   sodipodi:docname="pun.svg"
   xmlns:inkscape="http://www.inkscape.org/namespaces/inkscape"
   xmlns:sodipodi="http://sodipodi.sourceforge.net/DTD/sodipodi-0.dtd"
   xmlns="http://www.w3.org/2000/svg"
   xmlns:svg="http://www.w3.org/2000/svg">
  <sodipodi:namedview
     id="namedview1"
     pagecolor="#ffffff"
     bordercolor="#000000"
     borderopacity="0.25"
     inkscape:showpageshadow="2"
     inkscape:pageopacity="0.0"
     inkscape:pagecheckerboard="0"
     inkscape:deskcolor="#d1d1d1"
     inkscape:document-units="mm"
     showgrid="true"
     inkscape:zoom="1.6128405"
     inkscape:cx="-11.470446"
     inkscape:cy="-0.93003619"
     inkscape:window-width="1920"
     inkscape:window-height="1009"
     inkscape:window-x="-8"
     inkscape:window-y="-8"
     inkscape:window-maximized="1"
     inkscape:current-layer="layer1">
    <inkscape:grid
       id="grid1"
       units="px"
       originx="-3.7362263"
       originy="-3.8884542"
       spacingx="1.0583333"
       spacingy="1.0583333"
       empcolor="#0099e5"
       empopacity="0.30196078"
       color="#0099e5"
       opacity="0.14901961"
       empspacing="5"
       enabled="true"
       visible="true" />
  </sodipodi:namedview>
  <defs
     id="defs1">
    <inkscape:path-effect
       effect="spiro"
       id="path-effect2"
       is_visible="true"
       lpeversion="1" />
    <inkscape:path-effect
       effect="spiro"
       id="path-effect1"
       is_visible="true"
       lpeversion="1" />
    <inkscape:path-effect
       effect="spiro"
       id="path-effect21-6"
       is_visible="true"
       lpeversion="1" />
    <inkscape:path-effect
       effect="spiro"
       id="path-effect22-0"
       is_visible="true"
       lpeversion="1" />
    <inkscape:path-effect
       effect="spiro"
       id="path-effect32"
       is_visible="true"
       lpeversion="1" />
    <inkscape:path-effect
       effect="spiro"
       id="path-effect33"
       is_visible="true"
       lpeversion="1" />
    <inkscape:path-effect
       effect="spiro"
       id="path-effect34"
       is_visible="true"
       lpeversion="1" />
  </defs>
  <g
     inkscape:label="Layer 1"
     inkscape:groupmode="layer"
     id="layer1"
     transform="translate(-3.7362264,-3.8884543)">
    <path
       style="fill:none;stroke:#000000;stroke-width:3.175;stroke-linecap:round;stroke-linejoin:round;stroke-dasharray:none"
       d="m 148.16666,58.208331 c 3.56174,-0.518698 7.09607,-1.225564 10.58333,-2.116667 3.56919,-0.912038 7.08647,-2.016206 10.58334,-3.174999 4.64813,-1.540298 9.33452,-3.214231 13.31494,-6.066227 1.99022,-1.425998 3.78726,-3.143129 5.17658,-5.159116 1.38932,-2.015988 2.36293,-4.33796 2.67514,-6.766323 0.34206,-2.660577 -0.12144,-5.405132 -1.22101,-7.851892 -1.09956,-2.44676 -2.82309,-4.596394 -4.90534,-6.287526 -4.16449,-3.382266 -9.65044,-4.860812 -15.01539,-4.866856 -5.37393,-0.0061 -10.87264,1.46531 -15.04819,4.848194 -2.08778,1.691442 -3.81626,3.843283 -4.919,6.293536 -1.10274,2.450253 -1.56759,5.199585 -1.2244,7.864544 0.31271,2.428236 1.28654,4.749995 2.67593,6.765858 1.3894,2.015862 3.18637,3.732951 5.17648,5.15899 3.98021,2.852077 8.66629,4.526415 13.31426,6.066818 3.49683,1.158901 7.01413,2.262997 10.58333,3.174999 3.48727,0.891068 7.0216,1.597934 10.58333,2.116667"
       id="path32"
       inkscape:path-effect="#path-effect32"
       inkscape:original-d="m 148.16666,58.208331 c 3.13002,-0.707125 7.05555,-2.116667 10.58333,-2.116667 3.52778,0 7.05556,-1.411109 10.58334,-3.174999 3.52778,-1.763887 14.11111,-12.699999 21.16666,-17.991666 7.05556,-5.291667 -14.08619,-11.950719 -21.14174,-19.006274 -7.05556,-7.0555549 -14.13604,13.714607 -21.19159,19.006274 -7.05556,5.291667 14.11111,10.936112 21.16667,17.991666 7.05555,7.055556 7.05556,1.41111 10.58333,3.174999 3.52778,1.76389 7.05555,2.116667 10.58333,2.116667"
       sodipodi:nodetypes="csssssssc"
       transform="translate(-142.73135,-10.442752)" />
    <path
       style="fill:none;stroke:#000000;stroke-width:3.175;stroke-linecap:round;stroke-linejoin:round"
       d="M 21.166666,9.5714157 C 18.266585,11.553175 15.740092,14.079668 13.758333,16.979749 13.310685,17.634831 12.883742,18.32456 12.7,19.096415 c -0.178242,0.748751 -0.114573,1.549004 0.153084,2.270639 0.267658,0.721636 0.735322,1.364069 1.321384,1.862997 1.172124,0.997857 2.782506,1.39341 4.316942,1.270536 1.534436,-0.122874 2.999078,-0.727282 4.310598,-1.533203 1.31152,-0.805921 2.48698,-1.811523 3.656325,-2.812635 1.169345,-1.001112 2.344805,-2.006715 3.656325,-2.812636 1.31152,-0.805921 2.776162,-1.410329 4.310598,-1.533203 1.534436,-0.122874 3.144818,0.272678 4.316942,1.270535 0.586062,0.498929 1.053727,1.141362 1.321384,1.862998 0.267657,0.721635 0.331326,1.521888 0.153084,2.270639 -0.183742,0.771855 -0.610686,1.461584 -1.058334,2.116666 -1.98176,2.90008 -4.508253,5.426573 -7.408333,7.408333"
       id="path1"
       inkscape:path-effect="#path-effect1"
       inkscape:original-d="M 21.166666,9.5714157 C 17.390582,13.258774 17.28611,13.451972 13.758333,16.979749 10.230555,20.507527 13.028182,17.363325 12.7,19.096415 c -1.210552,6.392775 6.420024,13.893967 13.758333,1.058334 2.768458,-4.842384 10.230556,2.822222 13.758333,1.058333 3.527776,-1.763889 -0.905352,-1.792401 -1.058334,2.116666 -0.152985,3.909066 -5.644446,5.644446 -7.408333,7.408333"
       sodipodi:nodetypes="csssssc"
       transform="translate(0,1.0119171)" />
  </g>
</svg>
